<svg width="21" height="17" fill="none" xmlns="http://www.w3.org/2000/svg"><path d="M21 16.292a.712.712 0 0 1-.205.5.696.696 0 0 1-.495.208H.7a.696.696 0 0 1-.495-.207.712.712 0 0 1 0-1.002.696.696 0 0 1 .495-.208h19.6c.186 0 .364.075.495.208a.712.712 0 0 1 .205.5ZM.726 6.57a.716.716 0 0 1 .306-.797l9.1-5.666a.685.685 0 0 1 .736 0l9.1 5.666a.716.716 0 0 1 .054 1.167.695.695 0 0 1-.422.144h-2.1v5.666h1.4c.186 0 .364.075.495.208a.712.712 0 0 1 0 1.001.696.696 0 0 1-.495.208H2.1a.696.696 0 0 1-.495-.208.712.712 0 0 1 0-1.001.696.696 0 0 1 .495-.208h1.4V7.084H1.4a.709.709 0 0 1-.674-.514ZM11.9 12.042c0 .188.074.368.205.5a.696.696 0 0 0 .99 0 .712.712 0 0 0 .205-.5v-4.25a.712.712 0 0 0-.205-.5.696.696 0 0 0-.99 0 .712.712 0 0 0-.205.5v4.25Zm-4.2 0c0 .188.074.368.205.5a.696.696 0 0 0 .99 0 .712.712 0 0 0 .205-.5v-4.25a.713.713 0 0 0-.205-.5.696.696 0 0 0-.99 0 .713.713 0 0 0-.205.5v4.25Z" fill="#fff"/></svg>