<svg width="21" height="21" fill="none" xmlns="http://www.w3.org/2000/svg"><g clip-path="url(#a)"><path d="m8.638 1.82-.287-.18c-.562-.344-1.264-.544-1.866-.356-.648.202-1.165.7-1.436 1.45l-.386-.198c-.664-.342-1.012-.347-1.3-.218-.23.103-.47.35-.742.713L6 5.644c.529.172 1.304.168 2.08-.033.778-.201 1.554-.595 2.12-1.124l1.275-3.154c-1.124-.888-2.15-.374-2.838.488Zm2.178 3.139c-.698.705-1.735 1.181-2.543 1.394a5.693 5.693 0 0 1-.841.156c-.152.25-.279.505-.377.759.197 1 .566 1.821 1.12 2.494l-.591.492a6.26 6.26 0 0 1-.874-1.345c-.037.951.177 1.935.525 2.96l-.726.247c-.64-1.87-.857-3.786.041-5.59a3.384 3.384 0 0 1-.857-.177l-.012-.004a7.683 7.683 0 0 0-.505.53c-1.295 1.5-2.008 3.498-1.635 5.052.2.833.558 1.62 1.073 2.293.755-.016 1.469 0 2.117.246.307-.033.623-.053.951-.053 1.17 0 2.227.217 3.027.595.312.147.595.324.82.525 0-.218.033-.451.099-.624-.365-.344-.595-.763-.595-1.239 0-.66.44-1.205 1.075-1.6 0-.188.037-.368.102-.54-.414-.357-.68-.8-.68-1.317 0-.324.106-.62.287-.886a1.54 1.54 0 0 1-.287-.882c0-.16.024-.307.07-.451-.399-.353-.649-.788-.649-1.288 0-.496.246-.927.64-1.276a3.768 3.768 0 0 0-.775-.471Zm4.569.094c-1.066 0-2.03.226-2.69.558-.665.332-.977.742-.977 1.095 0 .357.312.767.976 1.1.66.332 1.624.557 2.69.557.464 0 .903-.045 1.31-.119v-.697c.57-.086 1.041-.242 1.345-.443v.722c.512-.148 1.005-.693 1.017-1.12 0-.353-.312-.763-.976-1.095-.665-.332-1.624-.558-2.695-.558Zm3.958 2.777a2.9 2.9 0 0 1-.476.402l.008 1.19c.517-.308.76-.665.76-.977 0-.197-.095-.41-.292-.615Zm-7.046.632c.012.352.323.75.976 1.078.664.337 1.624.558 2.694.558.669 0 1.296-.09 1.834-.238l.029-1.115c-.706.246-1.543.381-2.445.381-1.169 0-2.231-.234-3.035-.636-.02-.008-.037-.02-.053-.028Zm.082 1.427a.703.703 0 0 0-.082.324c0 .357.311.767.976 1.1.664.331 1.624.553 2.694.553a7.07 7.07 0 0 0 1.518-.156v-.984c-.476.09-.984.135-1.518.135-1.173 0-2.235-.23-3.039-.636a3.443 3.443 0 0 1-.55-.336Zm7.173 0c-.25.176-.467.308-.722.418v.915c.546-.316.804-.685.804-1.01a.702.702 0 0 0-.082-.323Zm.308 1.51c-.082.081-.172.16-.27.237v1.33c.422-.288.627-.604.627-.891 0-.217-.12-.451-.357-.677Zm-6.977.574c-.004.036-.008.07-.008.102 0 .357.312.763.976 1.095.664.337 1.628.558 2.695.558.61 0 1.193-.074 1.698-.197v-1.226a7.548 7.548 0 0 1-2.277.328c-1.173 0-2.235-.234-3.039-.636l-.045-.024Zm-.558.877c-.357.267-.525.558-.525.82 0 .357.312.763.976 1.1.665.332 1.625.553 2.695.553.39 0 .767-.028 1.12-.082v-.746h-.045c-1.173 0-2.236-.234-3.04-.64-.512-.254-.939-.595-1.18-1.005Zm6.665 1.255a6.09 6.09 0 0 1-1.054.271v.496c.078-.033.156-.065.23-.102.402-.205.672-.435.824-.665Zm.378.747a3.1 3.1 0 0 1-.538.422v1.173c.546-.311.804-.68.804-1.005 0-.188-.086-.393-.266-.59Zm-14.303.115c-.418.004-.87.057-1.337.168-.935.217-1.74.615-2.265 1.054-.525.435-.73.878-.668 1.193.061.316.385.607 1.017.776.63.164 1.51.172 2.445-.046.378-.09.73-.205 1.055-.34v-.849c.598-.266 1.045-.586 1.246-.898v1c.497-.426.69-.852.632-1.164-.057-.316-.386-.607-1.017-.771a4.29 4.29 0 0 0-1.108-.123Zm2.65.213c.11.16.189.34.23.541.045.246.024.484-.05.718.407.107.776.25 1.096.43.18.1.348.218.496.341.369-.086.68-.209.902-.357v.845c.66-.311.964-.693.964-.996 0-.308-.303-.69-.968-1.001-.66-.308-1.612-.517-2.67-.521Zm4.586.205c-.005.016-.005.037-.005.057 0 .357.312.763.977 1.1.664.332 1.624.553 2.694.553a7.34 7.34 0 0 0 1.518-.155v-1.104a7.774 7.774 0 0 1-2.014.254c-1.173 0-2.235-.233-3.04-.635a4.332 4.332 0 0 0-.13-.07Zm.114 1.53a.752.752 0 0 0-.118.394c0 .356.311.762.976 1.099.664.332 1.624.553 2.694.553a7.34 7.34 0 0 0 1.518-.155v-1.083c-.476.09-.984.14-1.518.14-1.173 0-2.235-.235-3.039-.64a3.337 3.337 0 0 1-.513-.308Zm7.1 0c-.238.16-.447.287-.685.39v1.009c.546-.312.804-.681.804-1.005a.752.752 0 0 0-.119-.394Zm-12 .221c-.145.18-.313.353-.501.509-.64.537-1.543.972-2.584 1.214-.372.086-.741.14-1.095.168.13.217.362.43.7.62.559.315 1.379.529 2.29.529.414 0 .808-.045 1.169-.123v-.854c.566-.086 1.041-.242 1.345-.443v.755c.41-.287.607-.611.607-.919 0-.356-.267-.738-.829-1.054a4.184 4.184 0 0 0-1.103-.402Z" fill="#fff"/></g><defs><clipPath id="a"><path fill="#fff" d="M0 0h21v21H0z"/></clipPath></defs></svg>