<svg width="12" height="12" fill="none" xmlns="http://www.w3.org/2000/svg"><path d="m6 7.157-4.05 4.05a.784.784 0 0 1-.578.226.784.784 0 0 1-.578-.227.784.784 0 0 1-.228-.578c0-.234.076-.427.228-.579L4.843 6 .793 1.95a.784.784 0 0 1-.227-.578c0-.234.076-.427.228-.578a.784.784 0 0 1 .578-.228c.234 0 .427.076.579.228L6 4.844l4.05-4.05a.784.784 0 0 1 .578-.228c.234 0 .427.076.578.228a.784.784 0 0 1 .228.578.784.784 0 0 1-.228.579L7.156 6l4.05 4.05a.784.784 0 0 1 .228.578.784.784 0 0 1-.228.578.783.783 0 0 1-.578.228.784.784 0 0 1-.579-.228L6 7.157Z" fill="#000" fill-opacity=".42"/></svg>